<svg xmlns="http://www.w3.org/2000/svg" viewBox="0 0 446.47 180.21"><defs><style>.cls-1,.cls-5{fill:#e5bdcf;}.cls-1,.cls-2,.cls-3,.cls-4,.cls-6{stroke:#ee2a7b;stroke-miterlimit:10;}.cls-1,.cls-2,.cls-4,.cls-6{stroke-width:3px;}.cls-2{fill:#c41d68;}.cls-3{fill:#231f20;}.cls-4{fill:#fff;}.cls-6{fill:none;}</style></defs><title>logo</title><g id="Layer_1" data-name="Layer 1"><circle class="cls-1" cx="89" cy="91.21" r="87.5"/><circle class="cls-2" cx="89" cy="140.08" r="38.63"/><ellipse class="cls-3" cx="77.5" cy="142.71" rx="3.5" ry="15.5"/><ellipse class="cls-3" cx="101.5" cy="142.71" rx="3.5" ry="15.5"/><circle class="cls-4" cx="60.77" cy="68.62" r="10.41"/><circle class="cls-4" cx="117.23" cy="68.62" r="10.41"/><path class="cls-5" d="M64.39,67.93c.64,9-5.45,13.09-13.54,9.16L21.44,62.79c-8.08-3.93-8.61-11.27-1.16-16.3L47.36,28.17c7.45-5,14.07-1.83,14.71,7.14Z" transform="translate(-7.24 -24.28)"/><path class="cls-6" d="M64.39,67.93c.64,9-5.45,13.09-13.54,9.16L21.44,62.79c-8.08-3.93-8.61-11.27-1.16-16.3L47.36,28.17c7.45-5,14.07-1.83,14.71,7.14Z" transform="translate(-7.24 -24.28)"/><path class="cls-5" d="M130,67.93c-.64,9,5.45,13.09,13.54,9.16L173,62.79c8.08-3.93,8.61-11.27,1.16-16.3L147.05,28.17c-7.45-5-14.07-1.83-14.71,7.14Z" transform="translate(-7.24 -24.28)"/><path class="cls-6" d="M130,67.93c-.64,9,5.45,13.09,13.54,9.16L173,62.79c8.08-3.93,8.61-11.27,1.16-16.3L147.05,28.17c-7.45-5-14.07-1.83-14.71,7.14Z" transform="translate(-7.24 -24.28)"/><path class="cls-1" d="M236.25,76.24v0H238c13.9,0,25.51,4.71,33.38,11.57,7.39,7.11,11.05,16.48,11.05,27.85s-3.66,20.72-11.05,27.77c-9.74,7.66-22.19,11.52-36.8,11.52H211.88V76.24Zm1.66,19h-5.07l.19,40.43h2.12c15.6,0,25.42-6.91,27.2-20.22C262.35,102.39,251.67,95.28,237.91,95.28Z" transform="translate(-7.24 -24.28)"/><path class="cls-1" d="M289.23,154.9V76.19h19.23V154.9Z" transform="translate(-7.24 -24.28)"/><path class="cls-1" d="M361.29,75.8A43.6,43.6,0,0,1,389.8,87.9l1.25,1.2-13.83,13.71-1.3-1.19a23.85,23.85,0,0,0-16.85-6.54,24.46,24.46,0,0,0-16.79,6c-4.71,4.12-7,8.9-7,14.54s2.29,10.47,7,14.52a24.66,24.66,0,0,0,16.8,6,23.75,23.75,0,0,0,16.9-6.53l1.29-1.21,13.82,13.7-1.22,1.21a41.39,41.39,0,0,1-13.5,8.9A46.23,46.23,0,0,1,359,155.44c-12.23,0-22.8-3.94-31.45-11.63a37.79,37.79,0,0,1-12.24-28.22c0-10.93,4.11-20.43,12.23-28.27A45.72,45.72,0,0,1,359,75.55h2.35Z" transform="translate(-7.24 -24.28)"/><path class="cls-1" d="M397.92,76h54.29V95.18H418.08v10.74H444.3v19.19H418.08v10.75h34.13V155H397.92Z" transform="translate(-7.24 -24.28)"/></g></svg>